<?xml version="1.0" standalone="no"?>
<!DOCTYPE svg PUBLIC "-//W3C//DTD SVG 20010904//EN"
 "http://www.w3.org/TR/2001/REC-SVG-20010904/DTD/svg10.dtd">
<svg version="1.0" xmlns="http://www.w3.org/2000/svg"
 width="200.000000pt" height="200.000000pt" viewBox="0 0 200.000000 200.000000"
 preserveAspectRatio="xMidYMid meet">

<g transform="translate(0.000000,200.000000) scale(0.100000,-0.100000)"
fill="#e11d48" stroke="none">
<path d="M287 1946 c-73 -27 -107 -76 -107 -154 0 -63 30 -109 90 -139 42 -22
56 -23 260 -23 204 0 218 1 260 23 65 33 85 66 85 140 0 49 -5 69 -23 95 -45
63 -63 67 -307 69 -168 2 -229 0 -258 -11z"/>
<path d="M1179 1951 c-108 -34 -153 -161 -89 -251 40 -57 86 -70 247 -70 80 0
152 -5 166 -11 28 -13 57 -58 57 -89 0 -31 -25 -74 -52 -88 -17 -9 -194 -13
-708 -15 l-685 -2 -39 -24 c-42 -26 -76 -86 -76 -136 0 -50 34 -110 76 -136
l39 -24 533 -5 534 -5 24 -28 c33 -38 33 -96 0 -134 -24 -28 -24 -28 -179 -33
-137 -4 -159 -7 -183 -26 -105 -78 -102 -215 7 -279 31 -18 57 -20 302 -25
268 -5 269 -5 288 -29 40 -49 37 -106 -8 -147 l-26 -24 -451 0 c-274 0 -465
-4 -488 -10 -46 -13 -103 -76 -112 -123 -15 -83 38 -164 124 -187 27 -7 248
-10 687 -8 607 3 651 4 691 22 52 23 115 92 130 144 17 56 17 1528 0 1583 -15
51 -69 114 -122 142 -40 21 -52 22 -351 24 -170 1 -322 -2 -336 -6z"/>
<path d="M154 881 c-114 -52 -126 -210 -21 -279 38 -25 50 -27 167 -30 155 -5
196 5 243 57 61 68 59 157 -4 220 -41 41 -84 51 -224 51 -95 0 -128 -4 -161
-19z"/>
</g>
</svg>
